# xmcd
#
# Track frame offsets: 
#        150
#        24779
#        39594
#        54305
#        70992
#        90187
#        103028
#        117064
#        132530
#        148527
#        162513
#
# Disc length: 2495 seconds
#
# Revision: 0
# Processed by: cddbd v1.5.2PL0 Copyright (c) Steve Scherf et al.
# Submitted via: ExactAudioCopy v0.99pb3
#
DISCID=8b09bd0b
DTITLE=The Brew - Art Of Persuasion
DYEAR=2018
DGENRE=Blues
TTITLE0=Seven Days Too Long
TTITLE1=One Line Crimes
TTITLE2=Boomerang Fool
TTITLE3=Gin Soaked Loving Queen
TTITLE4=Naked As I Stand
TTITLE5=Shaking The Room
TTITLE6=Pointless Pain
TTITLE7=Excess
TTITLE8=Carry The News
TTITLE9=Ghost Of The Nation
TTITLE10=Pink Noise King
EXTD=
EXTT0=
EXTT1=
EXTT2=
EXTT3=
EXTT4=
EXTT5=
EXTT6=
EXTT7=
EXTT8=
EXTT9=
EXTT10=
PLAYORDER=
